<mxfile host="app.diagrams.net" modified="2023-06-13T09:34:02.076Z" agent="Mozilla/5.0 (Macintosh; Intel Mac OS X 10_15_7) AppleWebKit/605.1.15 (KHTML, like Gecko) Version/16.4 Safari/605.1.15" etag="4xvQjABMlAyPD--6oxwm" version="21.3.8" type="device">
  <diagram name="Page-1" id="N89o3kwXQlXsDS05iGDA">
    <mxGraphModel dx="954" dy="615" grid="1" gridSize="10" guides="1" tooltips="1" connect="1" arrows="1" fold="1" page="1" pageScale="1" pageWidth="827" pageHeight="1169" math="0" shadow="0">
      <root>
        <mxCell id="0" />
        <mxCell id="1" parent="0" />
        <mxCell id="9ZTK_0D6nQBYWBu0MIWD-1" value="UI" style="rounded=1;whiteSpace=wrap;html=1;" parent="1" vertex="1">
          <mxGeometry x="350" y="320" width="120" height="60" as="geometry" />
        </mxCell>
        <mxCell id="9ZTK_0D6nQBYWBu0MIWD-2" value="UI" style="rounded=1;whiteSpace=wrap;html=1;" parent="1" vertex="1">
          <mxGeometry x="360" y="330" width="120" height="60" as="geometry" />
        </mxCell>
        <mxCell id="eMBxy0ghzsMbWPppQEsb-3" style="edgeStyle=orthogonalEdgeStyle;rounded=0;orthogonalLoop=1;jettySize=auto;html=1;exitX=0.5;exitY=1;exitDx=0;exitDy=0;entryX=0.5;entryY=0;entryDx=0;entryDy=0;" edge="1" parent="1" source="9ZTK_0D6nQBYWBu0MIWD-3" target="eMBxy0ghzsMbWPppQEsb-2">
          <mxGeometry relative="1" as="geometry" />
        </mxCell>
        <mxCell id="9ZTK_0D6nQBYWBu0MIWD-3" value="UI" style="rounded=1;whiteSpace=wrap;html=1;" parent="1" vertex="1">
          <mxGeometry x="370" y="340" width="120" height="60" as="geometry" />
        </mxCell>
        <mxCell id="9ZTK_0D6nQBYWBu0MIWD-4" value="Backend" style="rounded=1;whiteSpace=wrap;html=1;" parent="1" vertex="1">
          <mxGeometry x="350" y="490" width="120" height="60" as="geometry" />
        </mxCell>
        <mxCell id="9ZTK_0D6nQBYWBu0MIWD-5" value="Backend" style="rounded=1;whiteSpace=wrap;html=1;" parent="1" vertex="1">
          <mxGeometry x="360" y="500" width="120" height="60" as="geometry" />
        </mxCell>
        <mxCell id="9ZTK_0D6nQBYWBu0MIWD-12" style="edgeStyle=orthogonalEdgeStyle;rounded=0;orthogonalLoop=1;jettySize=auto;html=1;exitX=0;exitY=0.5;exitDx=0;exitDy=0;entryX=1;entryY=0.5;entryDx=0;entryDy=0;entryPerimeter=0;" parent="1" source="9ZTK_0D6nQBYWBu0MIWD-3" target="9ZTK_0D6nQBYWBu0MIWD-7" edge="1">
          <mxGeometry relative="1" as="geometry" />
        </mxCell>
        <mxCell id="9ZTK_0D6nQBYWBu0MIWD-13" style="edgeStyle=orthogonalEdgeStyle;rounded=0;orthogonalLoop=1;jettySize=auto;html=1;exitX=0.5;exitY=1;exitDx=0;exitDy=0;entryX=0.5;entryY=0;entryDx=0;entryDy=0;" parent="1" source="9ZTK_0D6nQBYWBu0MIWD-6" target="9ZTK_0D6nQBYWBu0MIWD-14" edge="1">
          <mxGeometry relative="1" as="geometry">
            <mxPoint x="494" y="635" as="targetPoint" />
          </mxGeometry>
        </mxCell>
        <mxCell id="9ZTK_0D6nQBYWBu0MIWD-20" style="edgeStyle=orthogonalEdgeStyle;rounded=0;orthogonalLoop=1;jettySize=auto;html=1;exitX=0;exitY=0.5;exitDx=0;exitDy=0;entryX=1;entryY=0.5;entryDx=0;entryDy=0;entryPerimeter=0;" parent="1" source="9ZTK_0D6nQBYWBu0MIWD-6" target="9ZTK_0D6nQBYWBu0MIWD-19" edge="1">
          <mxGeometry relative="1" as="geometry" />
        </mxCell>
        <mxCell id="9ZTK_0D6nQBYWBu0MIWD-6" value="Backend" style="rounded=1;whiteSpace=wrap;html=1;" parent="1" vertex="1">
          <mxGeometry x="370" y="510" width="120" height="60" as="geometry" />
        </mxCell>
        <mxCell id="9ZTK_0D6nQBYWBu0MIWD-7" value="Blob Store" style="shape=cylinder3;whiteSpace=wrap;html=1;boundedLbl=1;backgroundOutline=1;size=15;" parent="1" vertex="1">
          <mxGeometry x="250" y="330" width="60" height="80" as="geometry" />
        </mxCell>
        <mxCell id="9ZTK_0D6nQBYWBu0MIWD-16" style="edgeStyle=orthogonalEdgeStyle;rounded=0;orthogonalLoop=1;jettySize=auto;html=1;exitX=0.5;exitY=1;exitDx=0;exitDy=0;entryX=0.5;entryY=0;entryDx=0;entryDy=0;" parent="1" source="9ZTK_0D6nQBYWBu0MIWD-14" target="9ZTK_0D6nQBYWBu0MIWD-15" edge="1">
          <mxGeometry relative="1" as="geometry" />
        </mxCell>
        <mxCell id="9ZTK_0D6nQBYWBu0MIWD-15" value="ML Pipeline" style="rounded=1;whiteSpace=wrap;html=1;" parent="1" vertex="1">
          <mxGeometry x="327" y="615" width="206" height="80" as="geometry" />
        </mxCell>
        <mxCell id="9ZTK_0D6nQBYWBu0MIWD-14" value="Queue" style="shape=step;perimeter=stepPerimeter;whiteSpace=wrap;html=1;fixedSize=1;" parent="1" vertex="1">
          <mxGeometry x="370" y="600" width="120" height="30" as="geometry" />
        </mxCell>
        <mxCell id="9ZTK_0D6nQBYWBu0MIWD-19" value="Database" style="shape=cylinder3;whiteSpace=wrap;html=1;boundedLbl=1;backgroundOutline=1;size=15;" parent="1" vertex="1">
          <mxGeometry x="250" y="500" width="60" height="80" as="geometry" />
        </mxCell>
        <mxCell id="9ZTK_0D6nQBYWBu0MIWD-23" value="&lt;h1&gt;Database&lt;/h1&gt;&lt;p&gt;&lt;/p&gt;&lt;ul&gt;&lt;li&gt;User data&lt;/li&gt;&lt;li&gt;Course data&lt;/li&gt;&lt;li&gt;Labels&lt;/li&gt;&lt;/ul&gt;&lt;p&gt;&lt;/p&gt;" style="text;html=1;strokeColor=none;fillColor=none;spacing=5;spacingTop=-20;whiteSpace=wrap;overflow=hidden;rounded=0;" parent="1" vertex="1">
          <mxGeometry x="120" y="490" width="130" height="105" as="geometry" />
        </mxCell>
        <mxCell id="eMBxy0ghzsMbWPppQEsb-5" style="edgeStyle=orthogonalEdgeStyle;rounded=0;orthogonalLoop=1;jettySize=auto;html=1;exitX=0.5;exitY=1;exitDx=0;exitDy=0;entryX=0.5;entryY=0;entryDx=0;entryDy=0;" edge="1" parent="1" source="eMBxy0ghzsMbWPppQEsb-1" target="9ZTK_0D6nQBYWBu0MIWD-3">
          <mxGeometry relative="1" as="geometry" />
        </mxCell>
        <mxCell id="eMBxy0ghzsMbWPppQEsb-1" value="Load Balancer" style="rounded=0;whiteSpace=wrap;html=1;" vertex="1" parent="1">
          <mxGeometry x="340" y="270" width="180" height="30" as="geometry" />
        </mxCell>
        <mxCell id="eMBxy0ghzsMbWPppQEsb-4" style="edgeStyle=orthogonalEdgeStyle;rounded=0;orthogonalLoop=1;jettySize=auto;html=1;exitX=0.5;exitY=1;exitDx=0;exitDy=0;entryX=0.5;entryY=0;entryDx=0;entryDy=0;" edge="1" parent="1" source="eMBxy0ghzsMbWPppQEsb-2" target="9ZTK_0D6nQBYWBu0MIWD-6">
          <mxGeometry relative="1" as="geometry" />
        </mxCell>
        <mxCell id="eMBxy0ghzsMbWPppQEsb-2" value="Load Balancer" style="rounded=0;whiteSpace=wrap;html=1;" vertex="1" parent="1">
          <mxGeometry x="340" y="430" width="180" height="30" as="geometry" />
        </mxCell>
        <mxCell id="eMBxy0ghzsMbWPppQEsb-6" value="&lt;h1&gt;Blob Store&lt;/h1&gt;&lt;p&gt;&lt;/p&gt;&lt;ul&gt;&lt;li&gt;Website content&lt;/li&gt;&lt;li&gt;Course media&lt;/li&gt;&lt;/ul&gt;&lt;p&gt;&lt;/p&gt;" style="text;html=1;strokeColor=none;fillColor=none;spacing=5;spacingTop=-20;whiteSpace=wrap;overflow=hidden;rounded=0;" vertex="1" parent="1">
          <mxGeometry x="120" y="307.5" width="130" height="105" as="geometry" />
        </mxCell>
        <mxCell id="eMBxy0ghzsMbWPppQEsb-7" value="" style="endArrow=classic;html=1;rounded=0;entryX=0.5;entryY=0;entryDx=0;entryDy=0;" edge="1" parent="1" target="eMBxy0ghzsMbWPppQEsb-1">
          <mxGeometry width="50" height="50" relative="1" as="geometry">
            <mxPoint x="430" y="230" as="sourcePoint" />
            <mxPoint x="440" y="410" as="targetPoint" />
          </mxGeometry>
        </mxCell>
        <mxCell id="eMBxy0ghzsMbWPppQEsb-9" value="Ingress" style="text;html=1;strokeColor=none;fillColor=none;align=center;verticalAlign=middle;whiteSpace=wrap;rounded=0;" vertex="1" parent="1">
          <mxGeometry x="400" y="200" width="60" height="30" as="geometry" />
        </mxCell>
      </root>
    </mxGraphModel>
  </diagram>
</mxfile>
